<svg xmlns="http://www.w3.org/2000/svg" xmlns:xlink="http://www.w3.org/1999/xlink" contentStyleType="text/css" data-diagram-type="DESCRIPTION" height="668px" preserveAspectRatio="none" style="width:2270px;height:668px;background:#FFFFFF;" version="1.1" viewBox="0 0 2270 668" width="2270px" zoomAndPan="magnify"><?plantuml $version$?><defs/><g><g class="title" data-source-line="15"><text fill="#000000" font-family="'DejaVu Sans'" font-size="14" font-weight="700" lengthAdjust="spacing" textLength="639.2354" x="812.1366" y="22.9951">Downstream query surfaces &#8212; information stays at its sound traversal boundary</text></g><!--entity Q--><g class="entity" data-qualified-name="Q" data-source-line="17" id="ent0001"><rect fill="#B2EBF2" height="36.2969" rx="7" ry="7" style="stroke:#455A64;stroke-width:0.5;" width="156.6299" x="1037.61" y="52.4469"/><text fill="#102027" font-family="'DejaVu Sans'" font-size="14" lengthAdjust="spacing" textLength="136.6299" x="1047.61" y="75.442">query / native units</text></g><!--entity F--><g class="entity" data-qualified-name="F" data-source-line="18" id="ent0002"><rect fill="#C8E6C9" height="52.5938" rx="7" ry="7" style="stroke:#455A64;stroke-width:0.5;" width="124.8906" x="432.48" y="173.8969"/><text fill="#102027" font-family="'DejaVu Sans'" font-size="14" lengthAdjust="spacing" textLength="104.8906" x="442.48" y="196.892">NgramIndex or</text><text fill="#102027" font-family="'DejaVu Sans'" font-size="14" lengthAdjust="spacing" textLength="103.3184" x="442.48" y="213.1889">HybridMatcher</text></g><!--entity AP--><g class="entity" data-qualified-name="AP" data-source-line="19" id="ent0003"><rect fill="#E8F5E9" height="52.5938" rx="7" ry="7" style="stroke:#455A64;stroke-width:0.5;" width="232.1943" x="344.83" y="303.4869"/><text fill="#102027" font-family="'DejaVu Sans'" font-size="14" lengthAdjust="spacing" textLength="110.6943" x="354.83" y="326.482">AllowedPrefixes</text><text fill="#102027" font-family="'DejaVu Sans'" font-size="14" lengthAdjust="spacing" textLength="212.1943" x="354.83" y="342.7789">reachability + exact terminals</text></g><!--entity DFS--><g class="entity" data-qualified-name="DFS" data-source-line="20" id="ent0004"><rect fill="#FFE0B2" height="52.5938" rx="7" ry="7" style="stroke:#455A64;stroke-width:0.5;" width="209.0342" x="501.41" y="468.6769"/><text fill="#102027" font-family="'DejaVu Sans'" font-size="14" lengthAdjust="spacing" textLength="168.3213" x="511.41" y="491.672">balanced structural DFS</text><text fill="#102027" font-family="'DejaVu Sans'" font-size="14" lengthAdjust="spacing" textLength="189.0342" x="511.41" y="507.9689">SubsequenceQueryIterator</text></g><!--entity FDFS--><g class="entity" data-qualified-name="FDFS" data-source-line="21" id="ent0005"><rect fill="#FFCC80" height="52.5938" rx="7" ry="7" style="stroke:#455A64;stroke-width:0.5;" width="157.4092" x="145.22" y="468.6769"/><text fill="#102027" font-family="'DejaVu Sans'" font-size="14" lengthAdjust="spacing" textLength="137.4092" x="155.22" y="491.672">balanced fuzzy DFS</text><text fill="#102027" font-family="'DejaVu Sans'" font-size="14" lengthAdjust="spacing" textLength="134.8389" x="155.22" y="507.9689">PrefixQueryIterator</text></g><!--entity BFS--><g class="entity" data-qualified-name="BFS" data-source-line="22" id="ent0006"><rect fill="#BBDEFB" height="52.5938" rx="7" ry="7" style="stroke:#455A64;stroke-width:0.5;" width="185.2041" x="2034.33" y="173.8969"/><text fill="#102027" font-family="'DejaVu Sans'" font-size="14" lengthAdjust="spacing" textLength="165.2041" x="2044.33" y="196.892">breadth-first fuzzy walk</text><text fill="#102027" font-family="'DejaVu Sans'" font-size="14" lengthAdjust="spacing" textLength="94.9238" x="2044.33" y="213.1889">QueryIterator</text></g><!--entity MM--><g class="entity" data-qualified-name="MM" data-source-line="23" id="ent0007"><rect fill="#D7CCC8" height="52.5938" rx="7" ry="7" style="stroke:#455A64;stroke-width:0.5;" width="205.8418" x="2024.01" y="386.0769"/><text fill="#102027" font-family="'DejaVu Sans'" font-size="14" lengthAdjust="spacing" textLength="185.8418" x="2034.01" y="409.072">completed-candidate filter</text><text fill="#102027" font-family="'DejaVu Sans'" font-size="14" lengthAdjust="spacing" textLength="80.8623" x="2034.01" y="425.3689">MatchMode</text></g><!--entity MV--><g class="entity" data-qualified-name="MV" data-source-line="24" id="ent0008"><rect fill="#C8E6C9" height="52.5938" rx="7" ry="7" style="stroke:#455A64;stroke-width:0.5;" width="151.8516" x="1820" y="44.2969"/><text fill="#102027" font-family="'DejaVu Sans'" font-size="14" lengthAdjust="spacing" textLength="131.8516" x="1830" y="67.292">mapped dictionary</text><text fill="#102027" font-family="'DejaVu Sans'" font-size="14" lengthAdjust="spacing" textLength="120.1348" x="1830" y="83.5889">final-node values</text></g><!--entity R--><g class="entity" data-qualified-name="R" data-source-line="25" id="ent0009"><rect fill="#BBDEFB" height="52.5938" rx="7" ry="7" style="stroke:#455A64;stroke-width:0.5;" width="207.2432" x="1792.31" y="173.8969"/><text fill="#102027" font-family="'DejaVu Sans'" font-size="14" lengthAdjust="spacing" textLength="116.9971" x="1802.31" y="196.892">distance-layered</text><text fill="#102027" font-family="'DejaVu Sans'" font-size="14" lengthAdjust="spacing" textLength="187.2432" x="1802.31" y="213.1889">RankedValueQueryIterator</text></g><!--entity S--><g class="entity" data-qualified-name="S" data-source-line="26" id="ent0010"><rect fill="#E3F2FD" height="52.5938" rx="7" ry="7" style="stroke:#455A64;stroke-width:0.5;" width="196.709" x="1207.57" y="599.6669"/><text fill="#102027" font-family="'DejaVu Sans'" font-size="14" lengthAdjust="spacing" textLength="111.2959" x="1217.57" y="622.662">Suggestion&lt;V&gt;</text><text fill="#102027" font-family="'DejaVu Sans'" font-size="14" lengthAdjust="spacing" textLength="176.709" x="1217.57" y="638.9589">distance then confidence</text></g><!--entity C--><g class="entity" data-qualified-name="C" data-source-line="27" id="ent0011"><rect fill="#D1C4E9" height="52.5938" rx="7" ry="7" style="stroke:#455A64;stroke-width:0.5;" width="174.7178" x="1522.57" y="303.4869"/><text fill="#102027" font-family="'DejaVu Sans'" font-size="14" lengthAdjust="spacing" textLength="107.5566" x="1532.57" y="326.482">ContextualCost</text><text fill="#102027" font-family="'DejaVu Sans'" font-size="14" lengthAdjust="spacing" textLength="154.7178" x="1532.57" y="342.7789">available context only</text></g><!--entity CDP--><g class="entity" data-qualified-name="CDP" data-source-line="28" id="ent0012"><rect fill="#EDE7F6" height="52.5938" rx="7" ry="7" style="stroke:#455A64;stroke-width:0.5;" width="196.374" x="1494.74" y="468.6769"/><text fill="#102027" font-family="'DejaVu Sans'" font-size="14" lengthAdjust="spacing" textLength="161.3076" x="1504.74" y="491.672">contextual DP columns</text><text fill="#102027" font-family="'DejaVu Sans'" font-size="14" lengthAdjust="spacing" textLength="176.374" x="1504.74" y="507.9689">fail-closed dynamic costs</text></g><!--entity O--><g class="entity" data-qualified-name="O" data-source-line="29" id="ent0013"><rect fill="#F0F4C3" height="52.5938" rx="7" ry="7" style="stroke:#455A64;stroke-width:0.5;" width="265.1572" x="1492.35" y="173.8969"/><text fill="#102027" font-family="'DejaVu Sans'" font-size="14" lengthAdjust="spacing" textLength="210.1709" x="1502.35" y="196.892">OperationSet binary envelope</text><text fill="#102027" font-family="'DejaVu Sans'" font-size="14" lengthAdjust="spacing" textLength="245.1572" x="1502.35" y="213.1889">bincode payload + strict validation</text></g><!--entity B--><g class="entity" data-qualified-name="B" data-source-line="30" id="ent0014"><rect fill="#FFCCBC" height="52.5938" rx="7" ry="7" style="stroke:#455A64;stroke-width:0.5;" width="202.0205" x="1014.92" y="173.8969"/><text fill="#102027" font-family="'DejaVu Sans'" font-size="14" lengthAdjust="spacing" textLength="152.0244" x="1024.92" y="196.892">bounded bracket DFA</text><text fill="#102027" font-family="'DejaVu Sans'" font-size="14" lengthAdjust="spacing" textLength="182.0205" x="1024.92" y="213.1889">preflight geometric states</text></g><!--entity H--><g class="entity" data-qualified-name="H" data-source-line="31" id="ent0015"><rect fill="#FBE9E7" height="52.5938" rx="7" ry="7" style="stroke:#455A64;stroke-width:0.5;" width="190.4063" x="1157.73" y="303.4869"/><text fill="#102027" font-family="'DejaVu Sans'" font-size="14" lengthAdjust="spacing" textLength="170.4063" x="1167.73" y="326.482">kind-erased Dyck bound</text><text fill="#102027" font-family="'DejaVu Sans'" font-size="14" lengthAdjust="spacing" textLength="139.6855" x="1167.73" y="342.7789">admissible heuristic</text></g><!--entity D--><g class="entity" data-qualified-name="D" data-source-line="32" id="ent0016"><rect fill="#FFCCBC" height="52.5938" rx="7" ry="7" style="stroke:#455A64;stroke-width:0.5;" width="245.3057" x="734.28" y="173.8969"/><text fill="#102027" font-family="'DejaVu Sans'" font-size="14" lengthAdjust="spacing" textLength="100.8438" x="744.28" y="196.892">DyckCorrector</text><text fill="#102027" font-family="'DejaVu Sans'" font-size="14" lengthAdjust="spacing" textLength="225.3057" x="744.28" y="213.1889">exact interval dynamic program</text></g><!--entity P--><g class="entity" data-qualified-name="P" data-source-line="33" id="ent0017"><rect fill="#FFAB91" height="52.5938" rx="7" ry="7" style="stroke:#455A64;stroke-width:0.5;" width="229.9385" x="847.96" y="303.4869"/><text fill="#102027" font-family="'DejaVu Sans'" font-size="14" lengthAdjust="spacing" textLength="176.8867" x="857.96" y="326.482">lling-llang multi-kind PDA</text><text fill="#102027" font-family="'DejaVu Sans'" font-size="14" lengthAdjust="spacing" textLength="209.9385" x="857.96" y="342.7789">distinct stack marker per kind</text></g><g class="entity" data-qualified-name="GMN43" data-source-line="68" id="ent0044"><path d="M6,598.2669 L6,653.6653 A0,0 0 0 0 6,653.6653 L441.8574,653.6653 A0,0 0 0 0 441.8574,653.6653 L441.8574,608.2669 L431.8574,598.2669 L227.93,598.2669 L223.93,521.7669 L219.93,598.2669 L6,598.2669 A0,0 0 0 0 6,598.2669" fill="#FFF3E0" style="stroke:#181818;stroke-width:0.5;"/><path d="M431.8574,598.2669 L431.8574,608.2669 L441.8574,608.2669 L431.8574,598.2669" fill="#FFF3E0" style="stroke:#181818;stroke-width:0.5;"/><text fill="#000000" font-family="'DejaVu Sans'" font-size="13" lengthAdjust="spacing" textLength="305.2842" x="12" y="615.3338">DFS keeps one visitor state on the active path.</text><text fill="#000000" font-family="'DejaVu Sans'" font-size="13" lengthAdjust="spacing" textLength="414.8574" x="12" y="630.4666">BFS would require a snapshot per queued path or prefix replay;</text><text fill="#000000" font-family="'DejaVu Sans'" font-size="13" lengthAdjust="spacing" textLength="332.0078" x="12" y="645.5994">one shared mutable visitor would conflate siblings.</text></g><g class="entity" data-qualified-name="GMN46" data-source-line="74" id="ent0047"><path d="M847.47,474.8369 L847.47,515.1025 A0,0 0 0 0 847.47,515.1025 L1236.3802,515.1025 A0,0 0 0 0 1236.3802,515.1025 L1236.3802,484.8369 L1226.3802,474.8369 L1071.07,474.8369 L1219.96,356.2869 L1063.07,474.8369 L847.47,474.8369 A0,0 0 0 0 847.47,474.8369" fill="#FFF3E0" style="stroke:#181818;stroke-width:0.5;"/><path d="M1226.3802,474.8369 L1226.3802,484.8369 L1236.3802,484.8369 L1226.3802,474.8369" fill="#FFF3E0" style="stroke:#181818;stroke-width:0.5;"/><text fill="#000000" font-family="'DejaVu Sans'" font-size="13" lengthAdjust="spacing" textLength="252.5923" x="853.47" y="491.9038">Kind erasure is useful for pruning only.</text><text fill="#000000" font-family="'DejaVu Sans'" font-size="13" lengthAdjust="spacing" textLength="367.9102" x="853.47" y="507.0366">Exact multi-kind correction uses the interval recurrence.</text></g><!--link Q to F--><g class="link" data-entity-1="ent0001" data-entity-2="ent0002" data-link-type="dependency" data-source-line="35" id="lnk18"><path d="M1037.33,73.1969 C906.43,76.9169 650.1,88.9469 568.93,126.8969 C546.64,137.3169 530.1871,153.4261 516.7571,169.7461" fill="none" id="Q-to-F" style="stroke:#37474F;stroke-width:2;"/><polygon fill="#37474F" points="513.58,173.6069,522.3875,169.1991,516.7571,169.7461,516.2102,164.1157,513.58,173.6069" style="stroke:#37474F;stroke-width:2;stroke-linejoin:miter;stroke-miterlimit:10;"/><text fill="#000000" font-family="'DejaVu Sans'" font-size="13" lengthAdjust="spacing" textLength="84.0747" x="569.93" y="139.9638">filter request</text></g><!--link F to AP--><g class="link" data-entity-1="ent0002" data-entity-2="ent0003" data-link-type="dependency" data-source-line="36" id="lnk19"><path d="M488.13,226.7069 C482.2,248.9569 474.9261,276.2451 469.0061,298.4851" fill="none" id="F-to-AP" style="stroke:#37474F;stroke-width:2;"/><polygon fill="#37474F" points="467.72,303.3169,473.9005,295.6486,469.0061,298.4851,466.1697,293.5908,467.72,303.3169" style="stroke:#37474F;stroke-width:2;stroke-linejoin:miter;stroke-miterlimit:10;"/><text fill="#000000" font-family="'DejaVu Sans'" font-size="13" lengthAdjust="spacing" textLength="153.3848" x="480.96" y="269.5538">complete candidate set</text></g><!--link AP to DFS--><g class="link" data-entity-1="ent0003" data-entity-2="ent0004" data-link-type="dependency" data-source-line="37" id="lnk20"><path d="M452.28,356.3169 C446.02,379.8469 441.26,414.6569 457.93,438.6769 C468.56,453.9969 479.4708,462.9475 496.3908,470.9575" fill="none" id="AP-to-DFS" style="stroke:#37474F;stroke-width:2;"/><polygon fill="#37474F" points="500.91,473.0969,494.487,465.6306,496.3908,470.9575,491.064,472.8613,500.91,473.0969" style="stroke:#37474F;stroke-width:2;stroke-linejoin:miter;stroke-miterlimit:10;"/><text fill="#000000" font-family="'DejaVu Sans'" font-size="13" lengthAdjust="spacing" textLength="195.0825" x="458.93" y="416.9438">enter / leave / permits_accept</text></g><!--link Q to DFS--><g class="link" data-entity-1="ent0001" data-entity-2="ent0004" data-link-type="dependency" data-source-line="38" id="lnk21"><path d="M1037.51,81.8669 C934.3,96.9769 760.82,128.4269 716.93,173.8969 C633.26,260.5669 715.62,332.3769 658.93,438.6769 C653.17,449.4669 648.2185,456.0846 639.7385,464.6946" fill="none" id="Q-to-DFS" style="stroke:#37474F;stroke-width:2;"/><polygon fill="#37474F" points="636.23,468.2569,645.3952,464.6515,639.7385,464.6946,639.6955,459.0379,636.23,468.2569" style="stroke:#37474F;stroke-width:2;stroke-linejoin:miter;stroke-miterlimit:10;"/><text fill="#000000" font-family="'DejaVu Sans'" font-size="13" lengthAdjust="spacing" textLength="85.9092" x="678.36" y="269.5538">subsequence</text></g><!--link DFS to S--><g class="link" data-entity-1="ent0004" data-entity-2="ent0010" data-link-type="dependency" data-source-line="39" id="lnk22"><path d="M596.67,521.4969 C592.85,536.9569 591.6,555.9869 602.93,568.2669 C643.04,611.7469 1018.2004,621.8327 1202.1504,624.1927" fill="none" id="DFS-to-S" style="stroke:#2E7D32;stroke-width:2;"/><polygon fill="#2E7D32" points="1207.15,624.2569,1198.2021,620.1417,1202.1504,624.1927,1198.0994,628.1411,1207.15,624.2569" style="stroke:#2E7D32;stroke-width:2;stroke-linejoin:miter;stroke-miterlimit:10;"/><text fill="#000000" font-family="'DejaVu Sans'" font-size="13" lengthAdjust="spacing" textLength="164.3662" x="603.93" y="564.3338">exact permitted matches</text></g><!--link AP to FDFS--><g class="link" data-entity-1="ent0003" data-entity-2="ent0005" data-link-type="dependency" data-source-line="41" id="lnk23"><path d="M344.53,348.3769 C300.19,357.4369 256.74,369.9969 241.93,386.0769 C221.6,408.1469 219.2262,439.0849 220.6062,463.3549" fill="none" id="AP-to-FDFS" style="stroke:#37474F;stroke-width:2;"/><polygon fill="#37474F" points="220.89,468.3469,224.3726,459.1343,220.6062,463.3549,216.3855,459.5885,220.89,468.3469" style="stroke:#37474F;stroke-width:2;stroke-linejoin:miter;stroke-miterlimit:10;"/><text fill="#000000" font-family="'DejaVu Sans'" font-size="13" lengthAdjust="spacing" textLength="195.0825" x="242.93" y="416.9438">enter / leave / permits_accept</text></g><!--link Q to FDFS--><g class="link" data-entity-1="ent0001" data-entity-2="ent0005" data-link-type="dependency" data-source-line="42" id="lnk24"><path d="M1037.27,72.1869 C924.52,74.5769 711.11,84.8769 534.93,126.8969 C479.21,140.1769 463.52,143.5669 414.93,173.8969 C304.73,242.6669 258.98,264.2369 213.93,386.0769 C204.01,412.8969 208.1038,441.0778 214.1138,463.4678" fill="none" id="Q-to-FDFS" style="stroke:#37474F;stroke-width:2;"/><polygon fill="#37474F" points="215.41,468.2969,216.94,458.5676,214.1138,463.4678,209.2135,460.6416,215.41,468.2969" style="stroke:#37474F;stroke-width:2;stroke-linejoin:miter;stroke-miterlimit:10;"/><text fill="#000000" font-family="'DejaVu Sans'" font-size="13" lengthAdjust="spacing" textLength="141.064" x="293.87" y="269.5538">fuzzy query + budget</text></g><!--link FDFS to S--><g class="link" data-entity-1="ent0005" data-entity-2="ent0010" data-link-type="dependency" data-source-line="43" id="lnk25"><path d="M280.7,521.6369 C319.61,537.9769 372.86,557.9569 421.93,568.2669 C569.42,599.2569 1004.2524,615.8714 1202.3224,622.0314" fill="none" id="FDFS-to-S" style="stroke:#EF6C00;stroke-width:2;"/><polygon fill="#EF6C00" points="1207.32,622.1869,1198.4487,617.909,1202.3224,622.0314,1198.2,625.9052,1207.32,622.1869" style="stroke:#EF6C00;stroke-width:2;stroke-linejoin:miter;stroke-miterlimit:10;"/><text fill="#000000" font-family="'DejaVu Sans'" font-size="13" lengthAdjust="spacing" textLength="163.6299" x="422.93" y="564.3338">DFS-order fuzzy matches</text></g><!--link Q to BFS--><g class="link" data-entity-1="ent0001" data-entity-2="ent0006" data-link-type="dependency" data-source-line="45" id="lnk26"><path d="M1194.61,76.7269 C1301.69,84.3469 1499.08,100.6369 1665.93,126.8969 C1701.41,132.4769 1709.48,138.1369 1744.93,143.8969 C1864.98,163.3769 1897.02,153.5669 2016.93,173.8969 C2022.53,174.8469 2023.3729,174.9475 2029.1529,176.0775" fill="none" id="Q-to-BFS" style="stroke:#37474F;stroke-width:2;"/><polygon fill="#37474F" points="2034.06,177.0369,2025.9947,171.3844,2029.1529,176.0775,2024.4597,179.2357,2034.06,177.0369" style="stroke:#37474F;stroke-width:2;stroke-linejoin:miter;stroke-miterlimit:10;"/><text fill="#000000" font-family="'DejaVu Sans'" font-size="13" lengthAdjust="spacing" textLength="141.064" x="1745.93" y="139.9638">fuzzy query + budget</text></g><!--link BFS to MM--><g class="link" data-entity-1="ent0006" data-entity-2="ent0007" data-link-type="dependency" data-source-line="46" id="lnk27"><path d="M2126.93,226.9669 C2126.93,267.4169 2126.93,340.3469 2126.93,380.7269" fill="none" id="BFS-to-MM" style="stroke:#37474F;stroke-width:2;"/><polygon fill="#37474F" points="2126.93,385.7269,2130.93,376.7269,2126.93,380.7269,2122.93,376.7269,2126.93,385.7269" style="stroke:#37474F;stroke-width:2;stroke-linejoin:miter;stroke-miterlimit:10;"/><text fill="#000000" font-family="'DejaVu Sans'" font-size="13" lengthAdjust="spacing" textLength="126.5786" x="2127.93" y="269.5538">ordered candidates</text></g><!--link MM to S--><g class="link" data-entity-1="ent0007" data-entity-2="ent0010" data-link-type="dependency" data-source-line="47" id="lnk28"><path d="M2097.03,439.0469 C2053.3,474.9469 1967.84,539.0169 1882.93,568.2669 C1797.1,597.8369 1550.764,613.6425 1409.764,620.5425" fill="none" id="MM-to-S" style="stroke:#6D4C41;stroke-width:2;"/><polygon fill="#6D4C41" points="1404.77,620.7869,1413.9548,624.3422,1409.764,620.5425,1413.5637,616.3518,1404.77,620.7869" style="stroke:#6D4C41;stroke-width:2;stroke-linejoin:miter;stroke-miterlimit:10;"/><text fill="#000000" font-family="'DejaVu Sans'" font-size="13" lengthAdjust="spacing" textLength="144.5488" x="2059.17" y="499.5338">Within / Exact / Range</text></g><!--link Q to R--><g class="link" data-entity-1="ent0001" data-entity-2="ent0009" data-link-type="dependency" data-source-line="49" id="lnk29"><path d="M1194.54,80.6769 C1265.7,89.6969 1373.12,105.2969 1464.93,126.8969 C1489.42,132.6569 1494.32,138.6269 1518.93,143.8969 C1630.95,167.8669 1661.86,155.4869 1774.93,173.8969 C1780.54,174.8069 1781.3702,174.9147 1787.1602,175.9647" fill="none" id="Q-to-R" style="stroke:#37474F;stroke-width:2;"/><polygon fill="#37474F" points="1792.08,176.8569,1783.9382,171.3151,1787.1602,175.9647,1782.5107,179.1867,1792.08,176.8569" style="stroke:#37474F;stroke-width:2;stroke-linejoin:miter;stroke-miterlimit:10;"/><text fill="#000000" font-family="'DejaVu Sans'" font-size="13" lengthAdjust="spacing" textLength="141.064" x="1519.93" y="139.9638">fuzzy query + budget</text></g><!--link MV to R--><g class="link" data-entity-1="ent0008" data-entity-2="ent0009" data-link-type="dependency" data-source-line="50" id="lnk30"><path d="M1895.93,97.1069 C1895.93,119.3669 1895.93,146.4769 1895.93,168.7169" fill="none" id="MV-to-R" style="stroke:#37474F;stroke-width:2;"/><polygon fill="#37474F" points="1895.93,173.7169,1899.93,164.7169,1895.93,168.7169,1891.93,164.7169,1895.93,173.7169" style="stroke:#37474F;stroke-width:2;stroke-linejoin:miter;stroke-miterlimit:10;"/><text fill="#000000" font-family="'DejaVu Sans'" font-size="13" lengthAdjust="spacing" textLength="121.418" x="1896.93" y="139.9638">value at final node</text></g><!--link R to S--><g class="link" data-entity-1="ent0009" data-entity-2="ent0010" data-link-type="dependency" data-source-line="51" id="lnk31"><path d="M1889.57,226.8569 C1875.9,280.7669 1842.89,403.7069 1817.93,438.6769 C1723.42,571.1069 1529.759,609.2187 1409.579,620.2787" fill="none" id="R-to-S" style="stroke:#1565C0;stroke-width:2;"/><polygon fill="#1565C0" points="1404.6,620.7369,1413.9287,623.8953,1409.579,620.2787,1413.1956,615.9289,1404.6,620.7369" style="stroke:#1565C0;stroke-width:2;stroke-linejoin:miter;stroke-miterlimit:10;"/><text fill="#000000" font-family="'DejaVu Sans'" font-size="13" lengthAdjust="spacing" textLength="160.1895" x="1842.69" y="416.9438">one exact distance layer</text></g><!--link Q to CDP--><g class="link" data-entity-1="ent0001" data-entity-2="ent0012" data-link-type="dependency" data-source-line="53" id="lnk32"><path d="M1192.92,89.2269 C1247.72,104.6669 1320.76,131.4069 1373.93,173.8969 C1401.48,195.9069 1527.9096,392.0324 1573.9096,464.0924" fill="none" id="Q-to-CDP" style="stroke:#37474F;stroke-width:2;"/><polygon fill="#37474F" points="1576.6,468.3069,1575.129,458.5685,1573.9096,464.0924,1568.3858,462.8731,1576.6,468.3069" style="stroke:#37474F;stroke-width:2;stroke-linejoin:miter;stroke-miterlimit:10;"/><text fill="#000000" font-family="'DejaVu Sans'" font-size="13" lengthAdjust="spacing" textLength="127.1499" x="1448.17" y="269.5538">fixed query context</text></g><!--link C to CDP--><g class="link" data-entity-1="ent0011" data-entity-2="ent0012" data-link-type="dependency" data-source-line="54" id="lnk33"><path d="M1605.29,356.3169 C1603.73,365.6569 1602.08,376.3269 1600.93,386.0769 C1597.62,414.0569 1595.7205,441.3047 1594.4905,463.1947" fill="none" id="C-to-CDP" style="stroke:#37474F;stroke-width:2;"/><polygon fill="#37474F" points="1594.21,468.1869,1598.7086,459.4255,1594.4905,463.1947,1590.7212,458.9766,1594.21,468.1869" style="stroke:#37474F;stroke-width:2;stroke-linejoin:miter;stroke-miterlimit:10;"/><text fill="#000000" font-family="'DejaVu Sans'" font-size="13" lengthAdjust="spacing" textLength="211.9038" x="1601.93" y="416.9438">insertion / deletion / substitution</text></g><!--link CDP to S--><g class="link" data-entity-1="ent0012" data-entity-2="ent0010" data-link-type="dependency" data-source-line="55" id="lnk34"><path d="M1535.54,521.7669 C1485.48,544.2669 1417.8006,574.6873 1367.7806,597.1673" fill="none" id="CDP-to-S" style="stroke:#4527A0;stroke-width:2;"/><polygon fill="#4527A0" points="1363.22,599.2169,1373.0688,599.176,1367.7806,597.1673,1369.7894,591.8791,1363.22,599.2169" style="stroke:#4527A0;stroke-width:2;stroke-linejoin:miter;stroke-miterlimit:10;"/><text fill="#000000" font-family="'DejaVu Sans'" font-size="13" lengthAdjust="spacing" textLength="140.1816" x="1467.61" y="564.3338">exact contextual cost</text></g><!--link O to C--><g class="link" data-entity-1="ent0013" data-entity-2="ent0011" data-link-type="dependency" data-source-line="57" id="lnk35"><path d="M1617.75,226.8669 C1615.46,236.1269 1613.2,246.7069 1611.93,256.4869 C1609.92,271.9269 1609.3972,284.3669 1609.3772,298.2569" fill="none" id="O-to-C" style="stroke:#827717;stroke-width:2;"/><polygon fill="#827717" points="1609.37,303.2569,1613.383,294.2626,1609.3772,298.2569,1605.383,294.2511,1609.37,303.2569" style="stroke:#827717;stroke-width:2;stroke-linejoin:miter;stroke-miterlimit:10;"/><text fill="#000000" font-family="'DejaVu Sans'" font-size="13" lengthAdjust="spacing" textLength="217.7373" x="1612.93" y="269.5538">validated context-free operations</text></g><!--link Q to B--><g class="link" data-entity-1="ent0001" data-entity-2="ent0014" data-link-type="dependency" data-source-line="59" id="lnk36"><path d="M1115.93,89.0669 C1115.93,110.9069 1115.93,143.4669 1115.93,168.5569" fill="none" id="Q-to-B" style="stroke:#37474F;stroke-width:2;"/><polygon fill="#37474F" points="1115.93,173.5569,1119.93,164.5569,1115.93,168.5569,1111.93,164.5569,1115.93,173.5569" style="stroke:#37474F;stroke-width:2;stroke-linejoin:miter;stroke-miterlimit:10;"/><text fill="#000000" font-family="'DejaVu Sans'" font-size="13" lengthAdjust="spacing" textLength="91.3999" x="1116.93" y="139.9638">kinds + depth</text></g><!--link B to H--><g class="link" data-entity-1="ent0014" data-entity-2="ent0015" data-link-type="dependency" data-source-line="60" id="lnk37"><path d="M1097.82,226.7269 C1089.78,241.4469 1084.12,259.6969 1093.93,273.4869 C1109,294.6869 1128.0616,306.2608 1152.7116,314.3908" fill="none" id="B-to-H" style="stroke:#37474F;stroke-width:2;"/><polygon fill="#37474F" points="1157.46,315.9569,1150.1658,309.3392,1152.7116,314.3908,1147.66,316.9366,1157.46,315.9569" style="stroke:#37474F;stroke-width:2;stroke-linejoin:miter;stroke-miterlimit:10;"/><text fill="#000000" font-family="'DejaVu Sans'" font-size="13" lengthAdjust="spacing" textLength="165.8008" x="1094.93" y="269.5538">stack-language boundary</text></g><!--link Q to H--><g class="link" data-entity-1="ent0001" data-entity-2="ent0015" data-link-type="dependency" data-source-line="61" id="lnk38"><path d="M1163.67,89.2469 C1182.35,98.1369 1202.66,110.5569 1216.93,126.8969 C1262.02,178.5369 1272.24,205.3169 1264.93,273.4869 C1263.88,283.2569 1262.9358,288.953 1260.8158,298.213" fill="none" id="Q-to-H" style="stroke:#37474F;stroke-width:2;"/><polygon fill="#37474F" points="1259.7,303.0869,1265.6076,295.2065,1260.8158,298.213,1257.8094,293.4212,1259.7,303.0869" style="stroke:#37474F;stroke-width:2;stroke-linejoin:miter;stroke-miterlimit:10;"/><text fill="#000000" font-family="'DejaVu Sans'" font-size="13" lengthAdjust="spacing" textLength="97.0557" x="1267.59" y="204.7538">bracket tokens</text></g><!--link H to S--><g class="link" data-entity-1="ent0015" data-entity-2="ent0010" data-link-type="dependency" data-source-line="62" id="lnk39"><path d="M1257.54,356.3769 C1267.56,412.0169 1290.3533,538.5361 1300.4033,594.3061" fill="none" id="H-to-S" style="stroke:#D84315;stroke-width:2;"/><polygon fill="#D84315" points="1301.29,599.2269,1303.6305,589.6601,1300.4033,594.3061,1295.7573,591.0789,1301.29,599.2269" style="stroke:#D84315;stroke-width:2;stroke-linejoin:miter;stroke-miterlimit:10;"/><text fill="#000000" font-family="'DejaVu Sans'" font-size="13" lengthAdjust="spacing" textLength="152.147" x="1287.42" y="499.5338">lower-bound score only</text></g><!--link Q to D--><g class="link" data-entity-1="ent0001" data-entity-2="ent0016" data-link-type="dependency" data-source-line="63" id="lnk40"><path d="M1051.04,89.1869 C1021.21,98.4869 985.88,111.2369 955.93,126.8969 C931.22,139.8069 909.7811,155.3094 890.9211,170.4294" fill="none" id="Q-to-D" style="stroke:#37474F;stroke-width:2;"/><polygon fill="#37474F" points="887.02,173.5569,896.544,171.0482,890.9211,170.4294,891.54,164.8065,887.02,173.5569" style="stroke:#37474F;stroke-width:2;stroke-linejoin:miter;stroke-miterlimit:10;"/><text fill="#000000" font-family="'DejaVu Sans'" font-size="13" lengthAdjust="spacing" textLength="150.6172" x="956.93" y="139.9638">bracket tokens + kinds</text></g><!--link D to P--><g class="link" data-entity-1="ent0016" data-entity-2="ent0017" data-link-type="dependency" data-source-line="64" id="lnk41"><path d="M854.25,226.8769 C853.99,241.6469 855.95,259.8969 864.93,273.4869 C872.95,285.6269 880.3499,292.7531 892.8399,300.4931" fill="none" id="D-to-P" style="stroke:#37474F;stroke-width:2;"/><polygon fill="#37474F" points="897.09,303.1269,891.5468,294.986,892.8399,300.4931,887.3328,301.7862,897.09,303.1269" style="stroke:#37474F;stroke-width:2;stroke-linejoin:miter;stroke-miterlimit:10;"/><text fill="#000000" font-family="'DejaVu Sans'" font-size="13" lengthAdjust="spacing" textLength="187.7764" x="865.93" y="269.5538">replayable minimum witness</text></g><!--link D to S--><g class="link" data-entity-1="ent0016" data-entity-2="ent0010" data-link-type="dependency" data-source-line="65" id="lnk42"><path d="M844.19,226.6369 C816.64,285.7069 759.43,433.7669 829.93,521.2669 C876.39,578.9369 1077.0609,605.7803 1202.3609,617.2703" fill="none" id="D-to-S" style="stroke:#D84315;stroke-width:2;"/><polygon fill="#D84315" points="1207.34,617.7269,1198.7429,612.9217,1202.3609,617.2703,1198.0123,620.8883,1207.34,617.7269" style="stroke:#D84315;stroke-width:2;stroke-linejoin:miter;stroke-miterlimit:10;"/><text fill="#000000" font-family="'DejaVu Sans'" font-size="13" lengthAdjust="spacing" textLength="136.9761" x="798.32" y="416.9438">exact correction cost</text></g></g></svg>