<?xml version="1.0" encoding="UTF-8" standalone="no"?>
<!DOCTYPE svg PUBLIC "-//W3C//DTD SVG 1.1//EN"
 "http://www.w3.org/Graphics/SVG/1.1/DTD/svg11.dtd">
<!-- Generated by graphviz version 16.0.0 (0)
 -->
<!-- Title: metric_classification Pages: 1 -->
<svg width="900pt" height="1046pt"
 viewBox="0.00 0.00 900.00 1046.00" xmlns="http://www.w3.org/2000/svg" xmlns:xlink="http://www.w3.org/1999/xlink">
<g id="graph0" class="graph" transform="scale(1 1) rotate(0) translate(4 1041.91)">
<title>metric_classification</title>
<text xml:space="preserve" text-anchor="middle" x="445.87" y="-1022.51" font-family="DejaVu Sans" font-size="12.00">Classify the measure before adding an automaton</text>
<!-- start -->
<g id="node1" class="node">
<title>start</title>
<ellipse fill="#b2ebf2" stroke="#00838f" cx="682.66" cy="-987.41" rx="123.5" ry="28.26"/>
<text xml:space="preserve" text-anchor="middle" x="682.66" y="-990.46" font-family="DejaVu Sans" font-size="11.00" fill="#102027">Proposed distance or scorer</text>
<text xml:space="preserve" text-anchor="middle" x="682.66" y="-976.96" font-family="DejaVu Sans" font-size="11.00" fill="#102027">state its exact semantics</text>
</g>
<!-- alignment -->
<g id="node2" class="node">
<title>alignment</title>
<path fill="#ffe0b2" stroke="#ef6c00" d="M671.05,-919.13C671.05,-919.13 540.61,-885.21 540.61,-885.21 534.81,-883.7 534.81,-880.68 540.61,-879.17 540.61,-879.17 671.05,-845.25 671.05,-845.25 676.85,-843.74 688.47,-843.74 694.27,-845.25 694.27,-845.25 824.71,-879.17 824.71,-879.17 830.51,-880.68 830.51,-883.7 824.71,-885.21 824.71,-885.21 694.27,-919.13 694.27,-919.13 688.47,-920.64 676.85,-920.64 671.05,-919.13"/>
<text xml:space="preserve" text-anchor="middle" x="682.66" y="-885.24" font-family="DejaVu Sans" font-size="11.00" fill="#102027">Finite fixed&#45;consumption</text>
<text xml:space="preserve" text-anchor="middle" x="682.66" y="-871.74" font-family="DejaVu Sans" font-size="11.00" fill="#102027">alignment operations?</text>
</g>
<!-- start&#45;&gt;alignment -->
<g id="edge1" class="edge">
<title>start&#45;&gt;alignment</title>
<path fill="none" stroke="#37474f" stroke-width="1.8" d="M682.66,-958.75C682.66,-951.46 682.66,-943.35 682.66,-935.23"/>
<polygon fill="#37474f" stroke="#37474f" stroke-width="1.8" points="686.16,-935.29 682.66,-925.29 679.16,-935.29 686.16,-935.29"/>
</g>
<!-- history -->
<g id="node3" class="node">
<title>history</title>
<path fill="#ffe0b2" stroke="#ef6c00" d="M559.95,-790.86C559.95,-790.86 404.96,-756.14 404.96,-756.14 399.1,-754.83 399.1,-752.21 404.96,-750.9 404.96,-750.9 559.95,-716.18 559.95,-716.18 565.81,-714.87 577.51,-714.87 583.37,-716.18 583.37,-716.18 738.36,-750.9 738.36,-750.9 744.22,-752.21 744.22,-754.83 738.36,-756.14 738.36,-756.14 583.37,-790.86 583.37,-790.86 577.51,-792.17 565.81,-792.17 559.95,-790.86"/>
<text xml:space="preserve" text-anchor="middle" x="571.66" y="-756.57" font-family="DejaVu Sans" font-size="11.00" fill="#102027">Does legality or cost depend</text>
<text xml:space="preserve" text-anchor="middle" x="571.66" y="-743.07" font-family="DejaVu Sans" font-size="11.00" fill="#102027">on operation history?</text>
</g>
<!-- alignment&#45;&gt;history -->
<g id="edge3" class="edge">
<title>alignment&#45;&gt;history</title>
<path fill="none" stroke="#37474f" stroke-width="1.8" d="M654.65,-849.23C640.67,-833.27 623.57,-813.76 608.54,-796.61"/>
<polygon fill="#37474f" stroke="#37474f" stroke-width="1.8" points="611.45,-794.62 602.23,-789.41 606.19,-799.23 611.45,-794.62"/>
<text xml:space="preserve" text-anchor="middle" x="681.11" y="-814.73" font-family="DejaVu Sans" font-size="10.00">no / script semantics</text>
</g>
<!-- class_a -->
<g id="node7" class="node">
<title>class_a</title>
<path fill="#bbdefb" stroke="#1565c0" d="M879.74,-695.56C879.74,-695.56 709.58,-695.56 709.58,-695.56 703.58,-695.56 697.58,-689.56 697.58,-683.56 697.58,-683.56 697.58,-654.1 697.58,-654.1 697.58,-648.1 703.58,-642.1 709.58,-642.1 709.58,-642.1 879.74,-642.1 879.74,-642.1 885.74,-642.1 891.74,-648.1 891.74,-654.1 891.74,-654.1 891.74,-683.56 891.74,-683.56 891.74,-689.56 885.74,-695.56 879.74,-695.56"/>
<text xml:space="preserve" text-anchor="middle" x="794.66" y="-678.63" font-family="DejaVu Sans" font-size="11.00" fill="#102027">Class A</text>
<text xml:space="preserve" text-anchor="middle" x="794.66" y="-665.13" font-family="DejaVu Sans" font-size="11.00" fill="#102027">OperationSet preset</text>
<text xml:space="preserve" text-anchor="middle" x="794.66" y="-651.63" font-family="DejaVu Sans" font-size="11.00" fill="#102027">Hamming · indel · bounded skip</text>
</g>
<!-- alignment&#45;&gt;class_a -->
<g id="edge2" class="edge">
<title>alignment&#45;&gt;class_a</title>
<path fill="none" stroke="#2e7d32" stroke-width="1.8" d="M712.99,-849.8C720.57,-841.63 728.56,-832.73 735.66,-824.23 746.6,-811.13 751.04,-808.75 758.66,-793.48 772.17,-766.39 781.46,-733.37 787.22,-708.26"/>
<polygon fill="#2e7d32" stroke="#2e7d32" stroke-width="1.8" points="790.61,-709.11 789.33,-698.59 783.78,-707.62 790.61,-709.11"/>
<text xml:space="preserve" text-anchor="middle" x="755.22" y="-814.73" font-family="DejaVu Sans" font-size="10.00" fill="#2e7d32">yes</text>
</g>
<!-- combine -->
<g id="node4" class="node">
<title>combine</title>
<path fill="#ffe0b2" stroke="#ef6c00" d="M326.88,-621.8C326.88,-621.8 145.78,-586.44 145.78,-586.44 139.89,-585.29 139.89,-582.99 145.78,-581.84 145.78,-581.84 326.88,-546.48 326.88,-546.48 332.77,-545.33 344.55,-545.33 350.44,-546.48 350.44,-546.48 531.54,-581.84 531.54,-581.84 537.43,-582.99 537.43,-585.29 531.54,-586.44 531.54,-586.44 350.44,-621.8 350.44,-621.8 344.55,-622.95 332.77,-622.95 326.88,-621.8"/>
<text xml:space="preserve" text-anchor="middle" x="338.66" y="-587.19" font-family="DejaVu Sans" font-size="11.00" fill="#102027">Do sequential path costs</text>
<text xml:space="preserve" text-anchor="middle" x="338.66" y="-573.69" font-family="DejaVu Sans" font-size="11.00" fill="#102027">accumulate by ordinary addition?</text>
</g>
<!-- history&#45;&gt;combine -->
<g id="edge5" class="edge">
<title>history&#45;&gt;combine</title>
<path fill="none" stroke="#37474f" stroke-width="1.8" d="M530,-722.6C491.39,-694.86 433.75,-653.45 391.83,-623.34"/>
<polygon fill="#37474f" stroke="#37474f" stroke-width="1.8" points="393.91,-620.52 383.74,-617.53 389.82,-626.2 393.91,-620.52"/>
<text xml:space="preserve" text-anchor="middle" x="495.64" y="-665.71" font-family="DejaVu Sans" font-size="10.00">no</text>
</g>
<!-- class_b -->
<g id="node8" class="node">
<title>class_b</title>
<path fill="#bbdefb" stroke="#1565c0" d="M688.24,-526.18C688.24,-526.18 509.08,-526.18 509.08,-526.18 503.08,-526.18 497.08,-520.18 497.08,-514.18 497.08,-514.18 497.08,-484.72 497.08,-484.72 497.08,-478.72 503.08,-472.72 509.08,-472.72 509.08,-472.72 688.24,-472.72 688.24,-472.72 694.24,-472.72 700.24,-478.72 700.24,-484.72 700.24,-484.72 700.24,-514.18 700.24,-514.18 700.24,-520.18 694.24,-526.18 688.24,-526.18"/>
<text xml:space="preserve" text-anchor="middle" x="598.66" y="-509.25" font-family="DejaVu Sans" font-size="11.00" fill="#102027">Class B</text>
<text xml:space="preserve" text-anchor="middle" x="598.66" y="-495.75" font-family="DejaVu Sans" font-size="11.00" fill="#102027">PositionKind + AutomatonVariant</text>
<text xml:space="preserve" text-anchor="middle" x="598.66" y="-482.25" font-family="DejaVu Sans" font-size="11.00" fill="#102027">affine gap · true Damerau</text>
</g>
<!-- history&#45;&gt;class_b -->
<g id="edge4" class="edge">
<title>history&#45;&gt;class_b</title>
<path fill="none" stroke="#2e7d32" stroke-width="1.8" d="M568.78,-713.93C568.42,-707.79 568.11,-701.5 567.91,-695.56 567.13,-671.81 565.38,-665.72 567.91,-642.1 571.72,-606.62 580.74,-566.99 588.03,-538.69"/>
<polygon fill="#2e7d32" stroke="#2e7d32" stroke-width="1.8" points="591.38,-539.74 590.54,-529.18 584.61,-537.95 591.38,-539.74"/>
<text xml:space="preserve" text-anchor="middle" x="628.29" y="-665.71" font-family="DejaVu Sans" font-size="10.00" fill="#2e7d32">yes, bounded finite state</text>
</g>
<!-- domain -->
<g id="node5" class="node">
<title>domain</title>
<path fill="#ffe0b2" stroke="#ef6c00" d="M213.84,-452.63C213.84,-452.63 11.82,-416.85 11.82,-416.85 5.91,-415.81 5.91,-413.71 11.82,-412.67 11.82,-412.67 213.84,-376.89 213.84,-376.89 219.75,-375.85 231.57,-375.85 237.48,-376.89 237.48,-376.89 439.5,-412.67 439.5,-412.67 445.41,-413.71 445.41,-415.81 439.5,-416.85 439.5,-416.85 237.48,-452.63 237.48,-452.63 231.57,-453.67 219.75,-453.67 213.84,-452.63"/>
<text xml:space="preserve" text-anchor="middle" x="225.66" y="-417.81" font-family="DejaVu Sans" font-size="11.00" fill="#102027">Are inputs ordinary strings</text>
<text xml:space="preserve" text-anchor="middle" x="225.66" y="-404.31" font-family="DejaVu Sans" font-size="11.00" fill="#102027">rather than sequences or languages?</text>
</g>
<!-- combine&#45;&gt;domain -->
<g id="edge7" class="edge">
<title>combine&#45;&gt;domain</title>
<path fill="none" stroke="#37474f" stroke-width="1.8" d="M315.25,-548.46C298.24,-523.27 275.06,-488.93 256.54,-461.5"/>
<polygon fill="#37474f" stroke="#37474f" stroke-width="1.8" points="259.45,-459.56 250.96,-453.23 253.65,-463.48 259.45,-459.56"/>
<text xml:space="preserve" text-anchor="middle" x="307.51" y="-496.33" font-family="DejaVu Sans" font-size="10.00">yes</text>
</g>
<!-- class_c -->
<g id="node9" class="node">
<title>class_c</title>
<path fill="#c5cae9" stroke="#283593" d="M557.74,-356.8C557.74,-356.8 411.58,-356.8 411.58,-356.8 405.58,-356.8 399.58,-350.8 399.58,-344.8 399.58,-344.8 399.58,-315.34 399.58,-315.34 399.58,-309.34 405.58,-303.34 411.58,-303.34 411.58,-303.34 557.74,-303.34 557.74,-303.34 563.74,-303.34 569.74,-309.34 569.74,-315.34 569.74,-315.34 569.74,-344.8 569.74,-344.8 569.74,-350.8 563.74,-356.8 557.74,-356.8"/>
<text xml:space="preserve" text-anchor="middle" x="484.66" y="-339.87" font-family="DejaVu Sans" font-size="11.00" fill="#102027">Class C</text>
<text xml:space="preserve" text-anchor="middle" x="484.66" y="-326.37" font-family="DejaVu Sans" font-size="11.00" fill="#102027">CostMonoid accumulation</text>
<text xml:space="preserve" text-anchor="middle" x="484.66" y="-312.87" font-family="DejaVu Sans" font-size="11.00" fill="#102027">discrete Fréchet bottleneck</text>
</g>
<!-- combine&#45;&gt;class_c -->
<g id="edge6" class="edge">
<title>combine&#45;&gt;class_c</title>
<path fill="none" stroke="#37474f" stroke-width="1.8" d="M378.67,-551.76C406.06,-528.06 440.87,-493.13 460.66,-454.72 474.31,-428.23 480.22,-394.92 482.78,-369.54"/>
<polygon fill="#37474f" stroke="#37474f" stroke-width="1.8" points="486.25,-370.05 483.6,-359.79 479.27,-369.46 486.25,-370.05"/>
<text xml:space="preserve" text-anchor="middle" x="454.48" y="-496.33" font-family="DejaVu Sans" font-size="10.00">no</text>
</g>
<!-- inflation -->
<g id="node6" class="node">
<title>inflation</title>
<path fill="#ffe0b2" stroke="#ef6c00" d="M481.93,-192.37C481.93,-192.37 318.73,-157.43 318.73,-157.43 312.87,-156.18 312.87,-153.66 318.73,-152.41 318.73,-152.41 481.93,-117.47 481.93,-117.47 487.79,-116.22 499.53,-116.22 505.39,-117.47 505.39,-117.47 668.59,-152.41 668.59,-152.41 674.45,-153.66 674.45,-156.18 668.59,-157.43 668.59,-157.43 505.39,-192.37 505.39,-192.37 499.53,-193.62 487.79,-193.62 481.93,-192.37"/>
<text xml:space="preserve" text-anchor="middle" x="493.66" y="-157.97" font-family="DejaVu Sans" font-size="11.00" fill="#102027">Non&#45;negative monotone steps</text>
<text xml:space="preserve" text-anchor="middle" x="493.66" y="-144.47" font-family="DejaVu Sans" font-size="11.00" fill="#102027">give a subtree lower bound?</text>
</g>
<!-- domain&#45;&gt;inflation -->
<g id="edge9" class="edge">
<title>domain&#45;&gt;inflation</title>
<path fill="none" stroke="#37474f" stroke-width="1.8" d="M216.14,-376.3C208.32,-336.15 203.14,-272.68 235.41,-231.88 254.06,-208.3 319.17,-189.24 379.35,-176.11"/>
<polygon fill="#37474f" stroke="#37474f" stroke-width="1.8" points="379.98,-179.55 389.03,-174.05 378.52,-172.71 379.98,-179.55"/>
<text xml:space="preserve" text-anchor="middle" x="244.04" y="-255.49" font-family="DejaVu Sans" font-size="10.00">yes</text>
</g>
<!-- class_d -->
<g id="node10" class="node">
<title>class_d</title>
<path fill="#b2dfdb" stroke="#00695c" d="M453.99,-285.34C453.99,-285.34 273.33,-285.34 273.33,-285.34 267.33,-285.34 261.33,-279.34 261.33,-273.34 261.33,-273.34 261.33,-243.88 261.33,-243.88 261.33,-237.88 267.33,-231.88 273.33,-231.88 273.33,-231.88 453.99,-231.88 453.99,-231.88 459.99,-231.88 465.99,-237.88 465.99,-243.88 465.99,-243.88 465.99,-273.34 465.99,-273.34 465.99,-279.34 459.99,-285.34 453.99,-285.34"/>
<text xml:space="preserve" text-anchor="middle" x="363.66" y="-268.41" font-family="DejaVu Sans" font-size="11.00" fill="#102027">Class D</text>
<text xml:space="preserve" text-anchor="middle" x="363.66" y="-254.91" font-family="DejaVu Sans" font-size="11.00" fill="#102027">ElasticKernel or LanguageProduct</text>
<text xml:space="preserve" text-anchor="middle" x="363.66" y="-241.41" font-family="DejaVu Sans" font-size="11.00" fill="#102027">ERP · TWED · DTW · d(w,L)</text>
</g>
<!-- domain&#45;&gt;class_d -->
<g id="edge8" class="edge">
<title>domain&#45;&gt;class_d</title>
<path fill="none" stroke="#37474f" stroke-width="1.8" d="M255.94,-379.93C278.46,-354.78 309.1,-320.55 331.95,-295.03"/>
<polygon fill="#37474f" stroke="#37474f" stroke-width="1.8" points="334.41,-297.53 338.47,-287.75 329.19,-292.86 334.41,-297.53"/>
<text xml:space="preserve" text-anchor="middle" x="328.88" y="-326.95" font-family="DejaVu Sans" font-size="10.00">no</text>
</g>
<!-- bounded -->
<g id="node11" class="node">
<title>bounded</title>
<path fill="#c8e6c9" stroke="#2e7d32" d="M482.49,-46.71C482.49,-46.71 304.83,-46.71 304.83,-46.71 298.83,-46.71 292.83,-40.71 292.83,-34.71 292.83,-34.71 292.83,-18.75 292.83,-18.75 292.83,-12.75 298.83,-6.75 304.83,-6.75 304.83,-6.75 482.49,-6.75 482.49,-6.75 488.49,-6.75 494.49,-12.75 494.49,-18.75 494.49,-18.75 494.49,-34.71 494.49,-34.71 494.49,-40.71 488.49,-46.71 482.49,-46.71"/>
<text xml:space="preserve" text-anchor="middle" x="393.66" y="-29.78" font-family="DejaVu Sans" font-size="11.00" fill="#102027">Keep bounded&#45;distance traversal</text>
<text xml:space="preserve" text-anchor="middle" x="393.66" y="-16.28" font-family="DejaVu Sans" font-size="11.00" fill="#102027">prove K1–K4 / subsumption</text>
</g>
<!-- inflation&#45;&gt;bounded -->
<g id="edge14" class="edge">
<title>inflation&#45;&gt;bounded</title>
<path fill="none" stroke="#2e7d32" stroke-width="1.8" d="M467.12,-120.43C451.5,-100.72 431.93,-76.02 416.91,-57.07"/>
<polygon fill="#2e7d32" stroke="#2e7d32" stroke-width="1.8" points="419.74,-55 410.79,-49.34 414.25,-59.35 419.74,-55"/>
<text xml:space="preserve" text-anchor="middle" x="455.28" y="-81.09" font-family="DejaVu Sans" font-size="10.00" fill="#2e7d32">yes</text>
</g>
<!-- external -->
<g id="node12" class="node">
<title>external</title>
<path fill="#b3e5fc" stroke="#0277bd" d="M664.74,-53.46C664.74,-53.46 524.58,-53.46 524.58,-53.46 518.58,-53.46 512.58,-47.46 512.58,-41.46 512.58,-41.46 512.58,-12 512.58,-12 512.58,-6 518.58,0 524.58,0 524.58,0 664.74,0 664.74,0 670.74,0 676.74,-6 676.74,-12 676.74,-12 676.74,-41.46 676.74,-41.46 676.74,-47.46 670.74,-53.46 664.74,-53.46"/>
<text xml:space="preserve" text-anchor="middle" x="594.66" y="-36.53" font-family="DejaVu Sans" font-size="11.00" fill="#102027">Cross the crate boundary</text>
<text xml:space="preserve" text-anchor="middle" x="594.66" y="-23.03" font-family="DejaVu Sans" font-size="11.00" fill="#102027">WFST / Arctic / pushdown</text>
<text xml:space="preserve" text-anchor="middle" x="594.66" y="-9.53" font-family="DejaVu Sans" font-size="11.00" fill="#102027">fzf · exact multi&#45;kind Dyck</text>
</g>
<!-- inflation&#45;&gt;external -->
<g id="edge15" class="edge">
<title>inflation&#45;&gt;external</title>
<path fill="none" stroke="#c62828" stroke-width="1.8" d="M520.46,-120.43C534.5,-102.9 551.69,-81.41 566,-63.54"/>
<polygon fill="#c62828" stroke="#c62828" stroke-width="1.8" points="568.6,-65.89 572.12,-55.89 563.14,-61.51 568.6,-65.89"/>
<text xml:space="preserve" text-anchor="middle" x="636.36" y="-87.46" font-family="DejaVu Sans" font-size="10.00" fill="#c62828">no / needs max&#45;choice, closure,</text>
<text xml:space="preserve" text-anchor="middle" x="636.36" y="-74.71" font-family="DejaVu Sans" font-size="10.00" fill="#c62828">division, or stack memory</text>
</g>
<!-- class_a&#45;&gt;inflation -->
<g id="edge10" class="edge">
<title>class_a&#45;&gt;inflation</title>
<path fill="none" stroke="#37474f" stroke-width="1.8" stroke-dasharray="5,2" d="M788.03,-641.64C780.33,-608.86 768.66,-550.88 768.66,-500.45 768.66,-500.45 768.66,-500.45 768.66,-257.61 768.66,-221.07 682.17,-193.53 606.2,-176.39"/>
<polygon fill="#37474f" stroke="#37474f" stroke-width="1.8" points="607.29,-173.05 596.77,-174.31 605.78,-179.88 607.29,-173.05"/>
</g>
<!-- class_b&#45;&gt;inflation -->
<g id="edge11" class="edge">
<title>class_b&#45;&gt;inflation</title>
<path fill="none" stroke="#37474f" stroke-width="1.8" stroke-dasharray="5,2" d="M598.77,-472.52C598.24,-434.49 594.53,-361.76 575.66,-303.34 563.8,-266.64 542.45,-228.69 524.51,-200.49"/>
<polygon fill="#37474f" stroke="#37474f" stroke-width="1.8" points="527.68,-198.95 519.3,-192.47 521.81,-202.76 527.68,-198.95"/>
</g>
<!-- class_c&#45;&gt;inflation -->
<g id="edge12" class="edge">
<title>class_c&#45;&gt;inflation</title>
<path fill="none" stroke="#37474f" stroke-width="1.8" stroke-dasharray="5,2" d="M486.01,-303.15C487.32,-277.94 489.34,-238.95 490.98,-207.42"/>
<polygon fill="#37474f" stroke="#37474f" stroke-width="1.8" points="494.47,-207.76 491.49,-197.59 487.48,-207.4 494.47,-207.76"/>
</g>
<!-- class_d&#45;&gt;inflation -->
<g id="edge13" class="edge">
<title>class_d&#45;&gt;inflation</title>
<path fill="none" stroke="#37474f" stroke-width="1.8" stroke-dasharray="5,2" d="M397.14,-231.42C411.59,-220.12 428.79,-206.66 444.64,-194.27"/>
<polygon fill="#37474f" stroke="#37474f" stroke-width="1.8" points="446.43,-197.31 452.15,-188.39 442.11,-191.8 446.43,-197.31"/>
</g>
</g>
</svg>
